<?xml version="1.0"?>
<svg version="1.1" xmlns="http://www.w3.org/2000/svg" x="0" y="0" viewBox="0 0 100 100"
	 xml:space="preserve">
	<path id="XMLID_142_"
		  d="M50 21.098c.499 0 .998.2 1.365.601l31.21 25.24h5.568c1.612 0 2.455-1.916 1.365-3.104L51.365 11.032A1.846 1.846 0 0 0 50 10.431c-.499 0-.998.2-1.365.601L10.491 43.834c-1.089 1.188-.247 3.104 1.365 3.104h5.568l31.21-25.24c.368-.4.867-.6 1.366-.6z"
		  fill="#575656"/>
	<path id="XMLID_139_"
		  d="M50 42.431c.499 0 .998.2 1.365.601l31.21 25.24h5.568c1.612 0 2.455-1.916 1.365-3.104L51.365 32.365A1.846 1.846 0 0 0 50 31.764c-.499 0-.998.2-1.365.601L10.491 65.167c-1.089 1.188-.247 3.104 1.365 3.104h5.568l31.21-25.24c.368-.4.867-.6 1.366-.6z"
		  fill="#999998"/>
	<path id="XMLID_143_"
		  d="M50 63.79c.499 0 .998.2 1.365.601l31.21 25.24h5.568c1.612 0 2.455-1.916 1.365-3.104L51.365 53.724A1.846 1.846 0 0 0 50 53.123c-.499 0-.998.2-1.365.601L10.491 86.527c-1.089 1.188-.247 3.104 1.365 3.104h5.568l31.21-25.24A1.846 1.846 0 0 1 50 63.79z"
		  fill="#cccccb"/>
</svg>
