<?xml version="1.0" encoding="utf-8"?>
<svg version="1.1" xmlns="http://www.w3.org/2000/svg" x="0px" y="0px"
	 viewBox="0 0 1024 512" style="enable-background:new 0 0 1024 512;" xml:space="preserve">
<style type="text/css">
	.st0{fill:url(#SVGID_1_);}
</style>
<linearGradient id="SVGID_1_" gradientUnits="userSpaceOnUse" x1="25.7236" y1="261.2021" x2="1003.8936" y2="261.2021">
	<stop offset="0" style="stop-color: #d15539;"/><stop offset="1" style="stop-color: #fb9a37;"/>
</linearGradient>
<path class="st0" d="M86.57,383.43H25.72V63.17h156.85v62.55h-96V383.43z M45.72,363.43h20.85v-257.7h96V83.17H45.72V363.43z
	 M284.7,383.43h-60.85V63.17h60.85V383.43z M243.85,363.43h20.85V83.17h-20.85V363.43z M544.45,309.84V53.98h60.85v197.07
	L544.45,309.84z M564.45,73.98v188.73l20.85-20.14V73.98H564.45z M759.79,381.04h-211.8l58.79-60.85h153.39L759.79,381.04z
	 M595.12,361.04h144.79l0.13-20.85H615.26L595.12,361.04z M1002.4,381.04h-57.53V211.35l-91.11,91.11l-149.4-149.4V59.41
	l148.13,148.13L1002.4,57.62V381.04z M964.87,361.04h17.53V105.91L852.49,235.82L724.36,107.7v37.08l129.4,129.4l111.11-111.11
	V361.04z M345.14,205.75l-43.49-42.78L407.54,57.08h102.12L345.14,205.75z M330.05,162.85l15.67,15.42L457.7,77.08h-41.88
	L330.05,162.85z M509,381.34l-102.12-1.16L302.2,273.09l43.97-42.29L509,381.34z M415.39,360.27l41.87,0.48L346.44,258.29
	l-15.84,15.24L415.39,360.27z M983.38,438.43H26.7v30h956.68V438.43z M1003.89,438.43H47.21v30h956.68V438.43z"/>
</svg>
