<?xml version="1.0" encoding="utf-8"?>
<svg version="1.1" id="Layer_1" xmlns="http://www.w3.org/2000/svg" x="0px" y="0px" viewBox="0 0 200 29.858" enable-background="new 0 0 200 29.858" xml:space="preserve">
<g>
	<path fill-rule="evenodd" clip-rule="evenodd" fill="#006595" d="M112.418,22.203c-3.27,0-6.537,0-9.805,0
		c-0.793,1.974-1.509,3.941-2.279,5.959c-0.273,0.722-0.523,1.468-1.404,1.649c-0.26,0.051-0.601,0.02-0.934,0.02
		c-0.308,0-0.625,0-0.936,0c-0.681,0-1.33,0.055-1.893,0c-0.64-0.063-1.137-0.489-1.323-1.016c-0.039-0.117-0.078-0.248-0.08-0.368
		c-0.005-0.229,0.171-0.582,0.284-0.896c1.582-4.348,3.12-8.64,4.719-12.976c1.58-4.281,3.172-8.628,4.742-12.96
		c0.105-0.298,0.188-0.601,0.323-0.834c0.271-0.462,0.692-0.743,1.385-0.753c1.166-0.019,2.309,0,3.478,0
		c0.451,0,0.925-0.048,1.323,0c0.511,0.061,0.929,0.44,1.118,0.772c0.139,0.244,0.217,0.553,0.326,0.855
		c2.804,7.776,5.676,15.508,8.502,23.293c0.3,0.823,0.608,1.703,0.936,2.603c0.107,0.294,0.302,0.648,0.305,0.853
		c0.002,0.062-0.046,0.235-0.081,0.348c-0.141,0.47-0.448,0.828-0.996,0.995c-0.485,0.152-1.305,0.104-1.892,0.104
		c-0.716,0-1.391,0.021-1.994-0.02c-0.603-0.041-0.992-0.372-1.22-0.753c-0.151-0.254-0.239-0.562-0.347-0.854
		c-0.519-1.414-1.077-2.916-1.606-4.315C112.855,23.343,112.67,22.877,112.418,22.203z M104.688,16.729c1.892,0,3.785,0,5.676,0
		c-0.921-2.515-1.854-5.018-2.808-7.506C106.601,11.725,105.645,14.23,104.688,16.729z"/>
	<path fill-rule="evenodd" clip-rule="evenodd" fill="#006595" d="M138.58,18.846c0.02,0.12,0.126,0.225,0.223,0.346
		c1.317,1.688,2.658,3.339,4.026,5.043c0.688,0.858,1.442,1.773,2.159,2.688c0.347,0.447,0.835,0.914,0.69,1.688
		c-0.113,0.604-0.595,1.088-1.221,1.202c-0.433,0.078-0.948,0.02-1.446,0.02c-0.486,0-0.957,0-1.463,0
		c-0.821,0-2.126,0.129-2.686-0.227c-0.211-0.131-0.359-0.344-0.55-0.585c-1.142-1.458-2.363-2.948-3.498-4.377
		c-1.167-1.468-2.339-2.91-3.519-4.371c-0.161-0.2-0.279-0.44-0.488-0.591c0,2.633,0,5.183,0,7.871c0,0.374,0.047,0.771-0.022,1.098
		c-0.109,0.528-0.605,1.106-1.341,1.182c-0.547,0.055-1.225,0-1.893,0c-0.661,0-1.353,0.046-1.872-0.02
		c-0.705-0.094-1.138-0.55-1.281-1.12c-0.114-0.451-0.06-1.072-0.06-1.689c-0.001-8.072,0-16.143,0-24.248
		c0-0.606-0.05-1.223,0.08-1.648c0.118-0.389,0.332-0.648,0.61-0.833c0.561-0.374,1.643-0.245,2.604-0.245c2.162,0,4.378,0,6.61,0
		c0.906,0,1.724-0.01,2.483,0.103c2.209,0.327,3.851,1.25,5.207,2.501c1.719,1.585,3.071,3.967,3.071,7.222
		c0,1.574-0.43,2.979-0.997,4.152C142.895,16.312,141.056,17.896,138.58,18.846z M130.949,5.663c0,2.705,0,5.412,0,8.118
		c1.022,0,2.039,0,2.95,0c1.075,0,1.742-0.18,2.4-0.57c1.152-0.68,2.165-1.969,2.014-3.907c-0.061-0.787-0.379-1.478-0.752-1.993
		c-0.571-0.792-1.434-1.412-2.522-1.628c-1.228-0.243-2.664,0.014-4.067-0.082C130.946,5.606,130.948,5.635,130.949,5.663z"/>
	<path fill-rule="evenodd" clip-rule="evenodd" fill="#006595" d="M14.125,0.048c4.222-0.202,7.461,1.216,9.824,3.031
		c0.167,0.129,0.355,0.259,0.468,0.388c0.363,0.411,0.467,1.161,0.185,1.708c-0.161,0.306-0.414,0.535-0.653,0.772
		c-0.48,0.481-0.95,0.912-1.445,1.404c-0.252,0.254-0.466,0.524-0.731,0.691c-0.395,0.252-1.058,0.315-1.525,0.082
		c-0.168-0.083-0.298-0.224-0.448-0.325c-1.027-0.703-2.313-1.278-3.905-1.465c-1.967-0.231-3.786,0.266-5.065,0.937
		c-1.332,0.696-2.411,1.676-3.214,2.91c-0.79,1.21-1.445,2.734-1.445,4.678c0,1.995,0.687,3.503,1.465,4.678
		c0.799,1.21,1.88,2.22,3.233,2.893c1.271,0.625,3.069,1.16,5.086,0.914c1.37-0.168,2.442-0.61,3.417-1.183
		c0.305-0.176,0.571-0.442,0.916-0.608c0.417-0.203,0.972-0.201,1.424,0.061c0.288,0.167,0.488,0.409,0.732,0.652
		c0.434,0.432,0.964,0.923,1.404,1.362c0.323,0.323,0.671,0.596,0.833,1.035c0.206,0.552,0.05,1.191-0.264,1.548
		c-0.156,0.178-0.41,0.359-0.61,0.508c-1.463,1.086-3.315,2.003-5.33,2.504c-2.548,0.63-5.421,0.534-7.871-0.186
		c-2.221-0.651-4.116-1.762-5.717-3.231c-2.282-2.1-4.122-4.912-4.719-8.707c-0.21-1.333-0.227-2.76-0.042-4.151
		c0.348-2.609,1.264-4.708,2.484-6.469c1.291-1.87,2.782-3.22,4.617-4.334c1.53-0.929,3.533-1.744,5.817-2.013
		C13.405,0.086,13.772,0.066,14.125,0.048z"/>
	<path fill-rule="evenodd" clip-rule="evenodd" fill="#006595" d="M40.366,0.048c2.378-0.113,4.646,0.343,6.388,1.058
		c1.776,0.731,3.28,1.743,4.537,2.911c1.335,1.24,2.314,2.564,3.172,4.27c0.834,1.661,1.42,3.632,1.546,5.902
		c0.136,2.452-0.35,4.583-1.057,6.347c-0.717,1.786-1.744,3.271-2.909,4.535c-1.206,1.306-2.591,2.353-4.253,3.193
		c-1.66,0.841-3.599,1.414-5.899,1.548c-2.352,0.131-4.57-0.355-6.345-1.06c-1.789-0.71-3.305-1.718-4.559-2.889
		c-1.285-1.198-2.363-2.601-3.192-4.251c-0.842-1.67-1.414-3.604-1.547-5.898c-0.146-2.471,0.362-4.616,1.057-6.347
		c0.741-1.851,1.677-3.234,2.889-4.559c1.73-1.892,4.032-3.436,6.916-4.251c0.459-0.131,0.994-0.238,1.545-0.326
		C39.233,0.14,39.823,0.074,40.366,0.048z M38.88,6.557c-1.742,0.466-3.033,1.365-4.088,2.441c-0.748,0.763-1.283,1.562-1.729,2.626
		c-0.417,0.993-0.735,2.31-0.671,3.683c0.123,2.65,1.271,4.643,2.704,6c1.479,1.396,3.519,2.448,6.287,2.38
		c2.626-0.062,4.707-1.259,6.021-2.684c1.352-1.465,2.497-3.465,2.4-6.267c-0.046-1.331-0.359-2.521-0.835-3.519
		c-0.459-0.968-1.071-1.808-1.83-2.525c-1.398-1.321-3.568-2.53-6.307-2.4C40.144,6.327,39.487,6.395,38.88,6.557z"/>
	<path fill-rule="evenodd" clip-rule="evenodd" fill="#006595" d="M74.276,14.899c0.894-2.277,1.742-4.625,2.625-7.019
		c0.743-2.017,1.526-4.074,2.299-6.124c0.111-0.295,0.185-0.622,0.325-0.874c0.21-0.38,0.573-0.702,1.018-0.815
		c0.3-0.076,0.716-0.041,1.138-0.041c0.806,0,1.526,0,2.34,0c0.401,0,0.815-0.047,1.141,0.02c0.493,0.103,0.989,0.541,1.139,1.058
		c0.076,0.266,0.072,0.583,0.121,0.875c1.451,8.646,2.923,17.313,4.354,26.017c0.025,0.156,0.091,0.351,0.059,0.449
		c-0.063,0.202-0.062,0.385-0.14,0.548c-0.185,0.386-0.593,0.77-1.181,0.836c-0.541,0.061-1.181,0-1.832,0
		c-0.633,0-1.291,0.048-1.829,0c-0.491-0.047-0.914-0.349-1.12-0.651c-0.121-0.178-0.151-0.386-0.285-0.61
		c-0.763-5.027-1.575-10.006-2.34-15.034c-1.92,4.635-3.905,9.475-5.838,14.221c-0.33,0.812-0.619,1.645-1.423,1.951
		c-0.224,0.087-0.45,0.17-0.773,0.124c-0.093-0.013-0.192-0.07-0.286-0.105c-0.968-0.332-1.25-1.246-1.626-2.174
		c-1.909-4.683-3.831-9.343-5.718-14.017c-0.109,0.354-0.126,0.729-0.183,1.08c-0.701,4.466-1.44,9.036-2.135,13.528
		c-0.023,0.14-0.025,0.259-0.061,0.406c-0.011,0.04-0.026,0.057-0.042,0.1c-0.224,0.647-0.637,1.103-1.322,1.182
		c-0.48,0.053-1.053,0-1.605,0c-1.075,0-2.255,0.17-2.87-0.349c-0.286-0.237-0.532-0.595-0.548-1.035
		c-0.008-0.244,0.091-0.551,0.143-0.855c1.431-8.521,2.838-17.014,4.271-25.551c0.049-0.286,0.056-0.579,0.121-0.854
		c0.145-0.602,0.663-1.092,1.262-1.159c0.394-0.043,0.829,0,1.241,0c0.412,0,0.827,0,1.221,0c0.751,0,1.789-0.092,2.299,0.144
		c0.335,0.152,0.62,0.427,0.795,0.772c0.132,0.266,0.214,0.582,0.325,0.875C70.971,6.108,72.685,10.632,74.276,14.899z"/>
	<path fill-rule="evenodd" clip-rule="evenodd" fill="#006595" d="M162.338,0.048c0,0,0.008-0.02,0.022-0.02
		c3.554-0.169,6.353,0.849,8.543,2.196c0.338,0.21,0.713,0.449,1.077,0.713c0.353,0.255,0.717,0.556,0.874,0.896
		c0.143,0.302,0.183,0.836,0.042,1.202c-0.122,0.311-0.411,0.591-0.671,0.851c-0.494,0.496-1.023,0.984-1.525,1.486
		c-0.436,0.437-0.88,1.032-1.771,0.895c-0.248-0.039-0.427-0.12-0.59-0.224c-0.085-0.052-0.142-0.125-0.225-0.181
		c-0.063-0.048-0.15-0.077-0.224-0.124c-0.953-0.611-2.101-1.158-3.438-1.363c-2.053-0.313-3.928,0.16-5.331,0.854
		c-1.417,0.7-2.553,1.768-3.355,3.032c-0.789,1.239-1.491,2.915-1.383,4.924c0.107,1.974,0.843,3.552,1.688,4.699
		c0.893,1.211,2.091,2.161,3.579,2.808c0.726,0.313,1.63,0.571,2.523,0.671c1.085,0.119,2.054-0.003,2.909-0.204
		c1.045-0.245,1.986-0.675,2.807-1.201c0.162-0.102,0.305-0.227,0.469-0.323c0.576-0.347,1.25-0.272,1.707,0.081
		c0.484,0.372,0.864,0.886,1.345,1.321c0.463,0.421,0.99,0.829,1.321,1.322c0.351,0.523,0.312,1.382-0.103,1.852
		c-0.172,0.195-0.41,0.323-0.63,0.489c-1.472,1.098-3.248,2.021-5.309,2.522c-1.247,0.301-2.613,0.485-4.009,0.424
		c-1.344-0.058-2.654-0.242-3.864-0.609c-2.328-0.705-4.079-1.771-5.716-3.231c-2.297-2.049-4.102-4.92-4.72-8.707
		c-0.218-1.327-0.242-2.791-0.062-4.171c0.334-2.559,1.294-4.705,2.502-6.449c1.226-1.772,2.719-3.198,4.618-4.334
		c1.577-0.944,3.495-1.718,5.817-2.013C161.628,0.083,161.995,0.064,162.338,0.048z"/>
	<path fill-rule="evenodd" clip-rule="evenodd" fill="#006595" d="M182.945,12.439c3.479,0.045,7.047,0.005,10.559,0.02
		c0-3.041,0-5.931,0-8.993c0-0.978-0.132-2.152,0.242-2.747c0.254-0.401,0.688-0.692,1.385-0.692c0.603,0,1.382,0,2.074,0
		c0.623,0,1.461-0.09,1.932,0.144c0.455,0.222,0.796,0.665,0.835,1.239c0.047,0.69,0,1.398,0,2.117c0,7.579,0,15.48,0,23.069
		c0,0.749,0.085,1.502-0.041,2.053c-0.123,0.537-0.465,0.924-0.997,1.098c-0.515,0.171-1.314,0.084-2.013,0.084
		c-0.74,0-1.478,0.055-2.076-0.02c-0.696-0.094-1.167-0.566-1.301-1.181c-0.087-0.396-0.04-0.868-0.04-1.323
		c0-3.131,0-6.354,0-9.458c-3.479-0.048-7.045-0.007-10.559-0.021c0,3.22-0.001,6.312,0,9.58c0,0.449,0.043,0.934-0.062,1.303
		c-0.149,0.534-0.52,0.933-1.119,1.079c-0.331,0.079-0.68,0.041-1.058,0.041c-0.684,0-1.466,0-2.177,0
		c-0.369,0-0.7,0.016-0.996-0.084c-0.462-0.151-0.917-0.517-1.038-1.138c-0.093-0.481-0.021-1.128-0.021-1.709
		c0-8.012,0-15.979,0-24.044c0-0.601-0.064-1.224,0.041-1.669c0.142-0.593,0.654-1.092,1.282-1.159c0.564-0.062,1.249,0,1.893,0
		c0.667,0,1.339-0.051,1.892,0c0.725,0.067,1.228,0.625,1.342,1.22c0.078,0.401,0.021,0.912,0.021,1.384
		C182.945,5.893,182.944,9.177,182.945,12.439z"/>
</g>
</svg>
