<?xml version="1.0" encoding="UTF-8" standalone="no"?>
<svg
   xmlns="http://www.w3.org/2000/svg"
   version="1.0"
   width="1133.8583"
   height="479.76376"
   viewBox="0 0 1133 479"
   id="svg2">
  <defs
     id="defs4" />
  <g
     transform="translate(908.99995,-352.29137)"
     id="layer1">
    <g
       transform="matrix(0.4973279,0,0,0.4973279,-421.4958,418.0617)"
       id="g2470">
      <path
         d="M -32.521751,466.44758 C -34.456574,454.99547 -43.14909,433.95126 -49.99873,424.13658 C -54.41908,417.80277 -65.97181,406.41121 -73.22094,401.23834 C -81.15266,395.57838 -90.80238,391.07145 -99.25747,389.0779 C -107.2334,387.19733 -122.50266,387.19445 -131.49997,389.07182 C -145.09124,391.90776 -162.02011,402.17448 -171.13709,413.11024 C -172.98667,415.3288 -175.49888,418.21157 -176.71977,419.51639 C -179.25279,422.22353 -186.29657,435.40107 -188.62516,441.78907 C -191.35803,449.28609 -195.99997,465.98828 -195.99997,468.32437 L -195.99997,470.57648 L -31.824171,470.57648 L -32.521751,466.44758 z M -150.49997,760.95709 C -186.01322,758.10749 -217.86561,751.13619 -248.99997,739.39909 C -262.8794,734.16669 -285.98091,720.22319 -299.49997,708.91849 C -303.34997,705.69909 -307.72323,702.27899 -309.21833,701.31839 C -316.58912,696.58259 -339.43118,667.41419 -348.40476,651.27889 C -378.04862,597.97669 -386.0998,516.15742 -368.00668,452.07648 C -353.96759,402.35384 -326.50964,361.40174 -287.57522,332.11715 C -279.23039,325.84058 -267.69967,317.89662 -261.95139,314.46391 C -251.79581,308.39929 -229.64107,297.57648 -227.38214,297.57648 C -226.76599,297.57648 -219.56544,295.35754 -211.38092,292.6455 C -186.03367,284.24639 -165.14776,280.33418 -135.24592,278.38439 C -95.01049,275.76079 -47.87505,281.71457 -12.499971,293.8887 C -6.999971,295.78149 -1.149971,297.64175 0.500029,298.02261 C 5.684739,299.21937 27.303219,310.37885 38.120909,317.44254 C 72.491399,339.88564 96.976829,367.20875 115.48963,403.77755 C 136.30073,444.88648 147.07803,490.33192 148.70193,543.82648 L 149.30143,563.57648 L -196.21371,564.90755 L -195.59391,569.57985 C -193.94368,582.01987 -186.00393,602.82129 -178.92538,613.24979 C -168.67418,628.35239 -151.66263,640.49339 -133.29146,645.81819 C -126.52245,647.78009 -123.33468,648.06459 -108.99997,647.98569 C -91.39373,647.88879 -84.4002,646.64509 -70.97902,641.22399 C -58.75469,636.28639 -46.05004,626.54839 -41.26562,618.44899 L -39.568754,615.57649 C 17.850947,617.45527 75.631837,612.79302 133.00003,616.44559 C 133.00003,618.38319 122.56713,642.62859 118.39743,650.38099 C 109.51663,666.89239 88.359069,693.61069 78.314799,700.99829 C 76.012919,702.69129 70.237339,707.05819 65.480179,710.70259 C 50.505359,722.17449 24.941939,736.11199 11.000029,740.40579 C -26.030171,751.81029 -44.17569,755.75559 -74.99997,759.10439 C -88.78871,760.60249 -139.43169,761.84509 -150.49997,760.95709 z"
         id="path2450"
         style="fill:#15336f;fill-opacity:1" />
      <path
         d="M 964.00003,651.69289 C 998.43483,645.65579 1015.5652,636.06659 1028.4897,615.59269 C 1036.0417,603.62969 1037.3569,594.98669 1036.4512,563.27527 L 1035.7428,538.47405 L 1032.7116,539.13983 C 1031.0444,539.50601 1023.7234,542.19591 1016.4428,545.11739 C 995.44583,553.54284 975.51153,558.55941 957.00003,560.07648 C 947.85613,560.82585 934.41473,563.154 927.00003,565.2727 C 918.61233,567.66942 912.00203,570.84725 903.85413,576.39985 C 898.02543,580.37194 895.66923,582.7574 892.82433,587.56639 C 882.46453,605.07859 886.78943,633.90469 901.34483,644.35769 C 915.06303,654.20929 935.79953,656.63699 964.00003,651.69289 z M 838.00003,758.87709 C 819.15963,757.41189 796.26073,752.83459 782.50003,747.78309 C 763.80033,740.91849 760.74013,739.55729 754.13593,735.16679 C 732.96323,721.09119 717.93763,695.46739 710.10353,660.07649 C 704.09773,632.94479 704.95533,599.32619 712.23363,576.57648 C 717.07003,561.45967 725.28493,545.53138 732.22263,537.81895 C 749.68193,518.40987 763.26593,507.36501 778.76803,499.9738 C 808.97853,485.56975 835.93403,477.45645 869.50003,472.66442 C 890.43803,469.67523 904.44213,468.62667 937.00003,467.61037 C 967.59583,466.65531 975.54093,465.72435 993.00003,461.0486 C 1016.7073,454.6995 1032.7627,441.00959 1035.4633,424.84151 C 1037.9146,410.16637 1021.3417,394.84546 994.50003,386.97268 C 983.58003,383.76981 961.06163,382.5172 950.77713,384.54054 C 930.71403,388.48772 916.89283,399.47097 911.98223,415.36941 C 910.89203,418.89917 910.00003,423.53975 910.00003,425.68182 L 910.00003,429.57648 L 819.96863,429.57648 C 743.09373,429.57648 729.85763,429.36886 729.39203,428.15568 C 728.56803,426.00836 730.87733,408.12742 733.14753,399.07648 C 738.21933,378.8559 750.38943,358.16663 766.17213,342.9344 C 774.32613,335.06479 792.57723,321.73198 804.67333,314.8084 C 815.37533,308.68279 839.66933,297.57648 842.36653,297.57648 C 843.12503,297.57648 848.55193,296.00205 854.42623,294.07775 C 890.49253,282.26332 924.60913,276.75018 967.00003,275.88617 C 1021.2291,274.78087 1067.2412,280.39411 1104.4228,292.65101 C 1112.6407,295.36002 1119.8449,297.58295 1120.4322,297.59086 C 1122.9369,297.62457 1143.259,308.20843 1152.0276,314.04591 C 1164.521,322.36304 1182.0215,338.71826 1189.3513,348.92696 C 1196.7385,359.21575 1206.1314,378.39435 1209.4724,390.01061 C 1210.8856,394.92439 1213.0268,403.92439 1214.2307,410.01061 C 1225.144,510.59903 1207.5209,619.52265 1219.3287,719.07649 C 1221.4647,729.48239 1224.8537,740.68149 1226.4401,742.57649 C 1227.1307,743.40149 1228.0158,744.63899 1228.4069,745.32649 L 1045.5,746.55169 L 1043.1888,742.98479 C 1040.1112,738.23499 1037.2231,726.57959 1036.3904,715.54889 C 1036.0178,710.61409 1035.4902,706.57649 1035.2178,706.57649 C 1034.9455,706.57649 1031.7475,708.97969 1028.1113,711.91689 C 1024.4751,714.85409 1019.4157,718.66409 1016.8683,720.38349 C 1005.7606,727.88089 980.53323,739.56839 969.50003,742.32869 C 967.30003,742.87909 959.85363,744.91399 952.95243,746.85079 C 921.84953,755.57939 890.90883,759.70939 859.00003,759.39149 C 849.92503,759.30099 840.47503,759.06959 838.00003,758.87709 z"
         id="path2446"
         style="fill:#15336f;fill-opacity:1" />
      <path
         d="M -908.99997,295.57648 L -750.24652,295.57648 L -748.03609,305.32648 C -743.97074,323.25845 -736.81336,353.0727 -736.49444,353.40355 C -736.32104,353.58344 -734.25536,350.88344 -731.90405,347.40355 C -727.58525,341.01183 -724.61862,337.29459 -713.23475,324.01067 C -706.06277,315.64163 -691.99607,303.99219 -684.56178,300.26495 C -655.47272,285.68089 -628.38929,280.05471 -587.49997,280.10183 C -568.72927,280.12346 -563.84783,280.45831 -554.24457,282.38306 C -540.94519,285.04861 -527.91522,289.16899 -517.35313,294.04898 C -513.15398,295.9891 -509.17607,297.57648 -508.51333,297.57648 C -507.8506,297.57648 -502.40147,300.8027 -496.40416,304.74585 C -483.55763,313.19229 -460.70377,335.42484 -452.36554,347.58724 C -445.21645,358.0151 -434.47052,377.45149 -430.25641,387.57648 C -419.35626,413.76555 -413.32763,437.02151 -407.83305,474.07648 C -406.97902,479.83603 -406.54478,519.53395 -406.28251,615.82649 L -405.91822,749.57649 L -586.94004,749.57649 L -587.2414,625.82649 L -587.54276,502.07648 L -590.71649,489.99065 C -595.69605,471.02809 -599.96922,461.19946 -609.37419,447.07648 C -617.83869,434.36578 -625.91238,426.74578 -636.99997,421.00311 C -642.3188,418.24829 -642.99577,418.15317 -657.55183,418.11547 L -672.6037,418.07648 L -680.38409,421.92176 C -702.06463,432.63686 -718.41726,457.53737 -726.27093,491.79467 C -728.36959,500.94889 -728.40352,502.78443 -728.7397,625.32649 L -729.08057,749.57649 L -908.99997,749.57649 L -908.99997,295.57648 z"
         id="path2444"
         style="fill:#15336f;fill-opacity:1" />
      <path
         d="M 492.00003,333.2665 L 583.28563,421.92834 L 672.00003,333.22785 L 672.00003,749.57649 L 492.00003,749.57649 L 492.00003,333.2665 z"
         id="path2442"
         style="fill:#15336f;fill-opacity:1" />
      <path
         d="M 290.50003,747.45229 C 284.45003,746.98899 274.10003,745.65509 267.50003,744.48799 C 260.90003,743.32099 253.45713,742.00549 250.96013,741.56479 C 238.69733,739.40019 219.78263,729.67329 209.30623,720.14419 C 194.60583,706.77289 186.22263,690.86069 180.78933,666.01579 C 178.61923,656.09249 178.61513,655.82819 178.27473,502.32648 L 177.93373,348.57648 L 94.500029,348.50997 L 358.00003,75.200916 L 358.00003,241.57648 L 437.00003,241.57648 L 437.00003,348.57648 L 358.00003,348.57648 C 359.96818,427.86457 354.99124,507.44943 359.00533,586.68999 C 360.51253,594.76619 365.50453,604.01949 371.85093,610.50139 C 382.80103,621.68509 387.65403,622.90259 420.25003,622.64349 L 445.00003,622.44669 L 445.00003,685.51159 L 445.00003,748.57649 L 373.25003,748.43549 C 333.78753,748.35799 296.55003,747.91549 290.50003,747.45229 z"
         id="path2440"
         style="fill:#15336f;fill-opacity:1" />
      <path
         d="M 442.50134,69.451976 L 575.63584,-61.066384 L 710.05734,69.451976 L 575.63584,200.36861 L 442.50134,69.451976 z"
         id="path2436"
         style="fill:#058b68;fill-opacity:1" />
    </g>
  </g>
</svg>
